<svg xmlns="http://www.w3.org/2000/svg" version="1.1" xmlns:xlink="http://www.w3.org/1999/xlink" xmlns:svgjs="http://svgjs.dev/svgjs" width="100%" height="100%" viewBox="0 0 1000 600"><rect width="1000" height="600" x="0" y="0" fill="#f4a950"/><g><rect width="333.3333333333333" height="333.3333333333333" y="161.02193019570703" fill="#161b21" transform="matrix(0.9005783071867843,0,0,0.9005783071867842,0,4.890748970052073)" x="138.7997283935547"/><path d="M305.76201355275873 364.99153720681306L351.56719478238574 252.68860670590206L370.2327357505743 252.68860670590206L370.2327357505743 402.6886101425663L355.5367894679281 402.6886101425663L355.5367894679281 277.51968835589037L312.34985154153117 381.9115826395148L298.55480618042657 381.9115826395148L255.39602140782773 278.6458145078173L255.39602140782773 402.6886101425663L240.70007512518157 402.6886101425663L240.70007512518157 252.68860670590206L259.33746293957194 252.68860670590206L305.76201355275873 364.99153720681306Z " fill="#f4a950" transform="matrix(0.9005783071867843,0,0,0.9005783071867842,0,4.890748970052073)"/><path d="M609.0341857635781 402.68858819930847Q591.7813837986528 402.68858819930847 580.0076843779798 395.960759958924Q568.2085007594267 389.20744752065923 561.8374512893656 373.8914445946325Q555.4664018193046 358.57544166860566 555.4664018193046 333.3460857671638L555.4664018193046 333.3460857671638Q555.4664018193046 296.4704514344503 569.4572264555586 279.956691208052Q583.4480510918129 263.44293098165366 610.5122692406323 263.44293098165366L610.5122692406323 263.44293098165366Q623.1524313892335 263.44293098165366 635.0025834035471 266.90878189336684L635.0025834035471 266.90878189336684L635.0025834035471 279.4979756462076Q628.937344308049 277.561176607309 623.1269471913532 276.7456822751412Q617.2910658767773 275.9047037450931 610.8690480109557 275.9047037450931L610.8690480109557 275.9047037450931Q597.2095179471447 275.9047037450931 588.3410170848197 281.2309011020642Q579.4980004203749 286.5570984590352 574.910844801931 299.12080801399566Q570.323689183487 311.68451756895604 570.323689183487 332.9638227989601L570.323689183487 332.9638227989601Q570.323689183487 354.72732778868874 574.910844801931 367.2910373436491Q579.4980004203749 379.8547468986096 588.2135960954186 385.0280390682992Q596.929191770462 390.22681543586907 610.3083956575904 390.22681543586907L610.3083956575904 390.22681543586907Q616.2716979615675 390.22681543586907 622.158547671904 389.0800265312581Q628.0199131843601 387.93323762664704 635.0025834035471 385.53772302590414L635.0025834035471 385.53772302590414L635.0025834035471 398.1014325808645Q629.3960598698933 400.21662100492483 622.693715827389 401.4653467010568Q616.016855982765 402.68858819930847 609.0341857635781 402.68858819930847L609.0341857635781 402.68858819930847ZM677.3828044783934 402.68858819930847Q640.5071701456798 402.68858819930847 640.5071701456798 351.312445272736L640.5071701456798 351.312445272736Q640.5071701456798 324.4521007069585 649.9872917571307 312.14323313080047Q659.4928975664618 299.85984975252273 677.3828044783934 299.85984975252273L677.3828044783934 299.85984975252273Q694.9923852136421 299.85984975252273 704.574443616614 312.24516992232145Q714.1819862174661 324.6304900921202 714.1819862174661 351.23599267909526L714.1819862174661 351.23599267909526Q714.1819862174661 378.019884651232 704.676380408135 390.3542364252703Q695.170774598804 402.68858819930847 677.3828044783934 402.68858819930847L677.3828044783934 402.68858819930847ZM677.3828044783934 391.32263594471954Q684.7222534679038 391.32263594471954 689.5897352630304 387.7548482414853Q694.4572170581571 384.16157634037086 697.1075736377024 375.4459806653274Q699.7579302172478 366.7303849902838 699.7579302172478 351.5927714494187L699.7579302172478 351.5927714494187Q699.7579302172478 336.1748317318709 697.1075736377024 327.2808466716656Q694.4572170581571 318.3868616114603 689.5387668672699 314.8190739082262Q684.6203166763828 311.2258020071117 677.3828044783934 311.2258020071117L677.3828044783934 311.2258020071117Q670.043355488883 311.2258020071117 665.1249052979958 314.7681055124657Q660.2319393049888 318.2849248199394 657.5560985275633 327.05148889074337Q654.9057419480177 335.81805296154744 654.9057419480177 350.95566650241256L654.9057419480177 350.95566650241256Q654.9057419480177 366.3736062199604 657.5560985275633 375.2675912801657Q660.2319393049888 384.16157634037086 665.1249052979958 387.7548482414853Q670.043355488883 391.32263594471954 677.3828044783934 391.32263594471954L677.3828044783934 391.32263594471954ZM732.7089980764038 400.95566274345185L732.7089980764038 301.4143858232177L744.3552765076754 301.4143858232177L745.5530338080468 314.9974632933879L746.4704649317357 314.9974632933879Q750.675357581976 307.73446689751825 757.250280635079 304.06474240276304Q763.7997194903019 300.3950179080079 771.5978840416565 300.3950179080079L771.5978840416565 300.3950179080079Q773.7130724657168 300.3950179080079 777.2044075753104 300.8537334698523L777.2044075753104 300.8537334698523L777.2044075753104 314.1564847633398Q774.9872823597291 313.79970599301635 770.7823897094888 313.79970599301635L770.7823897094888 313.79970599301635Q763.519393313619 313.79970599301635 756.8680176668754 317.64781987293327Q750.2166420201315 321.4959337528502 746.6488543168973 328.3002145868754L746.6488543168973 328.3002145868754L746.6488543168973 400.95566274345185L732.7089980764038 400.95566274345185ZM816.6539458939285 402.68858819930847Q807.0973716888368 402.68858819930847 799.5285649184043 397.8720747999423Q791.9597581479718 393.05556140057615 787.4745393210487 382.0209037184304Q782.9893204941256 370.9607618384043 782.9893204941256 353.1473075201136L782.9893204941256 353.1473075201136Q782.9893204941256 326.08308937129414 794.3043043529542 313.00969585872883Q805.6447724096629 299.9363023461635 828.1982875336791 299.9363023461635L828.1982875336791 299.9363023461635Q833.0657693288058 299.9363023461635 839.0290716327831 300.59889149104987L839.0290716327831 300.59889149104987L839.0290716327831 252.68859947619055L852.9689278732767 252.68859947619055L852.9689278732767 400.95566274345185L840.9658706716816 400.95566274345185L839.9465027564718 390.8639203828751L839.0290716327831 390.8639203828751Q835.6396733147105 396.1901177398462 829.854760395895 399.45209506851745Q824.0698474770795 402.68858819930847 816.6539458939285 402.68858819930847L816.6539458939285 402.68858819930847ZM820.0433442120011 390.4052048210308Q825.7263203392956 390.4052048210308 830.9250967068654 387.4745220648026Q836.098388876555 384.54383930857455 839.0290716327831 379.1157051600825L839.0290716327831 379.1157051600825L839.0290716327831 312.52549609900416Q836.735493823561 312.06678053715973 833.3970639012491 311.73548596471664Q830.0331497810569 311.40419139227345 827.2808564099903 311.40419139227345L827.2808564099903 311.40419139227345Q812.3471164521673 311.40419139227345 804.8547622753754 320.7823762122033Q797.3878922964639 330.1350768342529 797.3878922964639 351.7711608345804L797.3878922964639 351.7711608345804Q797.3878922964639 366.90877437544555 800.2676066569313 375.3950122695669Q803.1728052152791 383.88125016368826 808.1167396040466 387.14322749235953Q813.0606739928141 390.4052048210308 820.0433442120011 390.4052048210308L820.0433442120011 390.4052048210308ZM940.1248846237122 351.312445272736L940.1248846237122 356.0015376827009L885.7416063472708 356.0015376827009Q885.9964483260733 369.1258995910267 889.1310046653434 376.74567475721983Q892.2400768067332 384.3399657255326 898.3817684958719 387.60194305420384Q904.5489443828912 390.8639203828751 914.3603605667852 390.8639203828751L914.3603605667852 390.8639203828751Q923.1524088354695 390.8639203828751 935.5377290052684 387.19419588812L935.5377290052684 387.19419588812L935.5377290052684 399.12080049607425Q929.3960373161294 401.05759953497284 923.9933873655175 401.8730938671407Q918.5652532170257 402.68858819930847 912.8822770897311 402.68858819930847L912.8822770897311 402.68858819930847Q898.6620946725548 402.68858819930847 889.5897202271879 397.61723282113985Q880.4918615839406 392.520393245091 875.955674361257 381.1289567926218Q871.4194871385735 369.7630045380329 871.4194871385735 351.05760329393354L871.4194871385735 351.05760329393354Q871.4194871385735 324.70694268576096 880.7721877606232 312.29613831808194Q890.1248883826729 299.85984975252273 906.8425221921132 299.85984975252273L906.8425221921132 299.85984975252273Q923.0759562418286 299.85984975252273 931.6131625317105 312.14323313080047Q940.1248846237122 324.4521007069585 940.1248846237122 351.312445272736L940.1248846237122 351.312445272736ZM906.7405854005922 310.3083708834229Q896.929169216698 310.3083708834229 891.4755508703258 318.25944062205906Q885.9964483260733 326.1850261628151 885.7416063472708 346.01173211364517L885.7416063472708 346.01173211364517L926.5672913514222 346.01173211364517Q926.3634177683803 332.42865464347494 923.942418969757 324.52855330059924Q921.521420171134 316.6539361556038 917.2400749272529 313.46841142057315Q912.9842138812519 310.3083708834229 906.7405854005922 310.3083708834229L906.7405854005922 310.3083708834229ZM971.5978690058139 400.95566274345185L957.6580127653203 400.95566274345185L957.6580127653203 252.68859947619055L971.5978690058139 252.68859947619055L971.5978690058139 400.95566274345185Z " fill="#161b21" transform="matrix(0.9005783071867843,0,0,0.9005783071867842,0,4.890748970052073)"/></g></svg>